<!-- icon666.com - MILLIONS vector ICONS FREE --><svg id="Layer_1" enable-background="new 0 0 512 512"
    viewBox="0 0 512 512" xmlns="http://www.w3.org/2000/svg">
    <path id="XMLID_2232_"
        d="m501.115 215.374c-7.111-12.223-17.372-22.346-31.594-30.269l-390.436-178.59c-19.922-10.423-42.78-7.449-59.589 7.686-18.321 16.472-24.445 43.342-14.709 68.037l73.836 163.168c2.875 7.061 2.875 14.847.387 21.009l-74.223 164.067c-.175.387-.35.787-.5 1.2-9.361 23.833-3.062 50.728 15.684 66.912 10.086 8.711 22.196 13.047 34.068 13.047 8.323 0 16.547-2.137 23.87-6.386l393.574-180.165c12.285-6.949 22.521-17.084 29.632-29.269 7.124-12.198 10.885-26.107 10.885-40.23 0-14.122-3.762-28.032-10.885-40.217zm-44.217 54.665c-2.562 4.387-6.236 8.011-8.673 9.511l-391.611 179.164c-.712.325-1.962 1.125-2.637 1.5-.35-.125-1.362-.925-2.074-2.512-.663-1.462-1.2-3.824-.138-6.874l74.273-164.218c.643-1.582 1.215-3.181 1.754-4.787h139.368v-51.19h-139.525c-.605-1.814-1.25-3.625-1.984-5.424l-73.724-162.867c-1.412-3.612-.625-6.399.287-8.098.95-1.8 2.175-2.537 4.399-1.762l389.674 178.178c4.386 2.475 8.048 6.111 10.61 10.498s3.912 9.373 3.912 14.435-1.349 10.046-3.911 14.446z"
        fill="rgb(158 158 158)"></path>
</svg>