<!-- icon666.com - MILLIONS vector ICONS FREE --><svg fill="none" viewBox="0 0 24 24"
    xmlns="http://www.w3.org/2000/svg">
    <path
        d="m4 7.8v7.2c0 1.1046.89543 2 2 2h.24257c.41832 0 .75743.3391.75743.7574 0 .8247.0696 2.0446.89389 2.0215.55923-.0157.75913-.6993 1.06326-1.1688l.15608-.241c.55295-.8537 1.50077-1.3691 2.51797-1.3691h5.5688c1.5464 0 2.8-1.2534 2.8-2.7998v-6.40042c0-1.5464-1.2532-2.79978-2.7996-2.79978h-10.40082c-1.54639 0-2.79958 1.2536-2.79958 2.8z"
        fill="rgb(158 158 158)"></path>
    <g fill="rgb(158 158 158)">
        <path clip-rule="evenodd"
            d="m6.79958 5.75c-1.13203 0-2.04958.91767-2.04958 2.05v7.2c0 .6904.55964 1.25 1.25 1.25h.24257c.83253 0 1.50743.6749 1.50743 1.5074 0 .4135.02068.8254.10675 1.115.01034.0348.02076.0646.03082.0898.00445-.0062.0091-.0129.01396-.02.05376-.0789.10747-.1756.17958-.3094.00514-.0095.01042-.0193.01581-.0294.06287-.1169.14223-.2644.23074-.4011l.15608-.2409c.69119-1.0672 1.87606-1.7114 3.14746-1.7114h5.5688c1.1323 0 2.05-.9177 2.05-2.0498v-6.40042c0-1.13225-.9175-2.04978-2.0496-2.04978zm1.01457 13.2974c.00004-.0004.00241-.0025.00702-.0052-.00474.0042-.00705.0055-.00702.0052zm-4.56415-11.2474c0-1.96047 1.58883-3.55 3.54958-3.55h10.40082c1.9607 0 3.5496 1.58923 3.5496 3.54978v6.40042c0 1.9607-1.5895 3.5498-3.55 3.5498h-5.5688c-.7629 0-1.4738.3865-1.88848 1.0268l-.15607.241c-.0541.0835-.1061.18-.17759.3127l-.00746.0139c-.06839.1269-.15662.2901-.26076.4428-.20532.3011-.58353.7234-1.22595.7414-.41747.0117-.77619-.1436-1.0421-.4129-.24302-.2461-.37561-.5527-.45387-.816-.1548-.5208-.16892-1.1311-.16892-1.5423 0-.0015-.00014-.0022-.00016-.0023l-.00012-.0003c-.00014-.0004-.00068-.0014-.0019-.0026-.00121-.0012-.00224-.0018-.00259-.0019l-.00037-.0001c-.00011-.0001-.00079-.0002-.00229-.0002h-.24257c-1.51878 0-2.75-1.2312-2.75-2.75z"
            fill-rule="evenodd"></path>
        <path d="m9 11c0 .5523-.44772 1-1 1s-1-.4477-1-1 .44772-1 1-1 1 .4477 1 1z"></path>
        <path d="m13 11c0 .5523-.4477 1-1 1s-1-.4477-1-1 .4477-1 1-1 1 .4477 1 1z"></path>
        <path d="m17 11c0 .5523-.4477 1-1 1s-1-.4477-1-1 .4477-1 1-1 1 .4477 1 1z"></path>
    </g>
</svg>